<svg xmlns="http://www.w3.org/2000/svg" viewBox="0 0 291.09 274.64"><defs><style>.cls-1{fill:#2c1715;}.cls-2{fill:#604343;}.cls-3{fill:#d1864e;}.cls-4{fill:#a56032;}.cls-5{fill:#f68d7a;}.cls-6{fill:#1c1e3b;}.cls-7{fill:#fa8c76;}.cls-8{fill:#1c203b;}.cls-9{fill:#944343;}.cls-10{fill:#f4dfcf;}.cls-11{fill:#b79d8b;}.cls-12{fill:#542121;}.cls-13,.cls-15,.cls-16,.cls-17,.cls-18,.cls-19,.cls-20,.cls-21,.cls-22{fill:none;stroke-linecap:round;stroke-linejoin:round;}.cls-13,.cls-15{stroke:#34b77e;}.cls-13{stroke-width:0.76px;}.cls-14{fill:#34b77e;}.cls-15,.cls-18,.cls-20{stroke-width:0.69px;}.cls-16,.cls-17{stroke:#00fcff;}.cls-16,.cls-22{stroke-width:0.78px;}.cls-17,.cls-19{stroke-width:0.77px;}.cls-18,.cls-19{stroke:#e1f0ff;}.cls-20,.cls-21{stroke:#ff4f92;}.cls-21{stroke-width:0.9px;}.cls-22{stroke:#ff8b00;}.cls-23{fill:#b6c4b9;}.cls-24{font-size:11.08px;}.cls-24,.cls-25{fill:#fff;font-family:Jellee-Roman, Jellee Roman;}.cls-25{font-size:12.49px;letter-spacing:-0.1em;}</style></defs><title>4877365</title><g id="OBJECTS"><rect class="cls-1" x="108.04" y="125.82" width="45.51" height="2.94"/><polygon class="cls-1" points="141.07 45.97 136.11 111.55 230.96 113.9 235.14 47.01 141.07 45.97"/><polygon class="cls-1" points="174.52 105.28 172.17 125.66 162.5 127.23 162.5 129.84 189.67 129.84 190.46 101.62 174.52 105.28"/><polygon class="cls-2" points="142.9 49.1 228.08 49.63 224.16 109.72 139.25 109.72 142.9 49.1"/><polygon class="cls-3" points="11.67 125.84 11.67 136.16 192.05 138.77 192.21 129.71 11.67 125.84"/><path class="cls-4" d="M464.09,142.14h85.33v9.05H464.09Z" transform="translate(-272.23 -12.44)"/><polygon class="cls-4" points="25.02 135.03 0 251.94 4.08 251.94 32.67 134.01 25.02 135.03"/><polygon class="cls-4" points="202.16 135.03 227.18 251.94 223.1 251.94 194.51 134.01 202.16 135.03"/><polygon class="cls-4" points="264.07 134.94 291.09 241.46 287.01 241.46 256.41 134.01 264.07 134.94"/><path class="cls-5" d="M377.92,66.64c.65,1.8,2.2,3.11,3.15,4.77-7,4.67,3.22,5.78-12.33,12.46-.52,3.64,2.67,10.33-13.19,8.84C349.87,53.82,376.42,43.62,377.92,66.64Z" transform="translate(-272.23 -12.44)"/><path class="cls-6" d="M367.76,70.92c-7.59,39.23-46.58-28.71-9.17-23.78,7.52-8,15.85-1.26,22.87,7.2a6.88,6.88,0,0,1-11.18,3.32C373.41,67.2,359.27,62.36,367.76,70.92Z" transform="translate(-272.23 -12.44)"/><path class="cls-7" d="M384.14,267.57c-5.7,1.85-7.4-4.11-7.79-10.62C386.06,250.81,383.86,264.31,384.14,267.57Z" transform="translate(-272.23 -12.44)"/><path class="cls-8" d="M357.17,204.32c.48,18.66,7.38,36.6,11.79,55.38A42.83,42.83,0,0,0,387.51,257C375.15,196.05,391.64,194.39,357.17,204.32Z" transform="translate(-272.23 -12.44)"/><path class="cls-8" d="M378.26,266.3a7.9,7.9,0,0,1,6.75.11C412.79,278.69,368,285.17,378.26,266.3Z" transform="translate(-272.23 -12.44)"/><path class="cls-8" d="M420.1,177.87c7.57,2.08,8.56,20.29,7.87,27-4.84,2.66-16.9,5.66-20.82,3-3.08-9.77-16.84-.24-24.73-6.55C371.76,173,405.78,173.34,420.1,177.87Z" transform="translate(-272.23 -12.44)"/><path class="cls-7" d="M432.71,267.57c-5.69,1.85-7.39-4.11-7.79-10.62C434.63,250.81,432.44,264.31,432.71,267.57Z" transform="translate(-272.23 -12.44)"/><path class="cls-9" d="M371.75,206.26c-.06,1.74-.19,3.49-.16,5.23s0,3.41.07,5.11c0,3.44.2,6.89.35,10.33.29,6.81.57,13.62,1,20.42q.38,5.85.76,11.7a1.5,1.5,0,0,0,3,0c-.23-6.89-.37-13.79-.75-20.67s-.62-13.79-1.2-20.66l-.48-5.73c-.17-2-.49-4-.76-6-.14-1.08-1.8-.75-1.84.25Z" transform="translate(-272.23 -12.44)"/><path class="cls-9" d="M394.91,273.93a13.28,13.28,0,0,0-3.59-10.12,21,21,0,0,0-9.61-5.45,30.34,30.34,0,0,0-11.65-.93,23.72,23.72,0,0,0-10.82,3.77,15.69,15.69,0,0,0-6.34,9,11.81,11.81,0,0,0-.25,1.32,2,2,0,1,0,3.91.53c0-.21,0-.43.06-.65a1.12,1.12,0,0,1,0-.32c-.16.25-.06.41,0,.09s.17-.88.29-1.32.21-.72.34-1.06c0-.1.08-.19.11-.28.13-.35-.19.4,0,.06s.19-.42.3-.62a8.92,8.92,0,0,1,.63-1,2.19,2.19,0,0,1,.29-.39c-.35.31-.14.17,0,.05l.26-.3a13.33,13.33,0,0,1,1.7-1.66,2.11,2.11,0,0,1,.23-.19c-.41.22-.16.13,0,0l.5-.36c.36-.25.73-.48,1.12-.7s.66-.37,1-.54.37-.19.56-.27l.29-.13c.45-.2-.23.08.07,0a26.46,26.46,0,0,1,5-1.41l.66-.1c.11,0,.51-.06,0,0l.33,0,1.35-.13c.94-.06,1.88-.08,2.82-.05s1.81.1,2.71.2c.1,0,.5.07,0,0l.34,0,.66.11c.44.08.88.16,1.31.26a22.23,22.23,0,0,1,2.54.71c.41.13.82.28,1.22.44l.3.12c-.48-.19-.12-.05,0,0l.68.31a18.32,18.32,0,0,1,2.16,1.21c.31.2.61.41.91.63.09.07.37.3,0,0l.23.19c.18.14.35.29.52.45.34.3.67.62,1,.95.13.14.26.29.38.44a2,2,0,0,1,.19.22c.3.36-.16-.23,0,0a15.91,15.91,0,0,1,1.35,2.19l.12.26c.2.42-.08-.25,0,0s.16.43.23.64a9.07,9.07,0,0,1,.33,1.24c.05.23.09.46.13.69-.1-.55,0,.23,0,.38a12.39,12.39,0,0,1,0,1.49,1.61,1.61,0,1,0,3.21,0Z" transform="translate(-272.23 -12.44)"/><path class="cls-9" d="M393.36,279a5.17,5.17,0,0,1,.82.8l-.19-.24a2,2,0,0,1,.3.5l-.12-.29a1.74,1.74,0,0,1,.11.39l0-.33a1.31,1.31,0,0,1,0,.28l.05-.34a1.32,1.32,0,0,1-.09.3l.14-.31a1.49,1.49,0,0,1-.18.3l.21-.28a1.62,1.62,0,0,1-.32.32l.29-.22a3.11,3.11,0,0,1-.56.32l.35-.15a3,3,0,0,1-.58.18l.41-.06c-.35,0-.68.15-1,.2l.41-.06a3.05,3.05,0,0,1-.74,0l.42,0a1.66,1.66,0,0,1-.45-.12l.37.16a1.35,1.35,0,0,1-.26-.15l.32.25a.77.77,0,0,1-.18-.18l.25.32a.82.82,0,0,1-.12-.2l.16.38a1.38,1.38,0,0,1-.08-.29l.06.42a1.53,1.53,0,0,1,0-.37l-.06.42a2.69,2.69,0,0,1,.19-.67l-.16.38a7,7,0,0,1,.87-1.41l-.24.32c.1-.14.21-.27.32-.41l-.31.25a.8.8,0,0,1,.16-.08l-.37.16a1.4,1.4,0,0,1,.35-.1l-.42.06a.86.86,0,0,1,.32,0l-.41-.06a1.67,1.67,0,0,1,.3.08l-.37-.15a1.68,1.68,0,0,1,.34.2l-.32-.25a2.4,2.4,0,0,1,.39.39l-.25-.32a2.84,2.84,0,0,1,.35.61l-.16-.38a2.57,2.57,0,0,1,.19.67l-.05-.43a2,2,0,0,1,0,.49l.06-.43a1.38,1.38,0,0,1-.08.29l.17-.39a1.18,1.18,0,0,1-.11.19l.25-.33-.13.13.33-.25-.15.08.39-.16a.79.79,0,0,1-.22.06l.44-.06h-.31l.44.06-.57-.07.44.06a3.27,3.27,0,0,1-.77-.23l.39.17-.53-.26.58,2.22a.88.88,0,0,1,.12-.21l-.25.33a1.14,1.14,0,0,1,.19-.19l-.33.25a1.88,1.88,0,0,1,.24-.14l-.38.16a1.89,1.89,0,0,1,.34-.09l-.43.06h.28l-.43-.06.27.07-.38-.16.14.08a1.58,1.58,0,0,0,1.91-2.48,1.73,1.73,0,0,0-1.12-.46,1.59,1.59,0,0,0-1.36.78,2.05,2.05,0,0,0-.18.43c0,.09-.06.19-.1.28l.16-.37a1.74,1.74,0,0,1-.18.33l.24-.32a.81.81,0,0,1-.16.16l.32-.24-.13.07.37-.15-.16,0,.41-.05h-.17l.41.06a.9.9,0,0,1-.22-.06l.37.15a1.83,1.83,0,0,1-.38-.23l.3.24-.22-.18a1.91,1.91,0,0,0-.38-.31,1.7,1.7,0,0,0-.76-.21l.4.06h0l.9.69h0l.21.76h0l-.06.4h0l-.15.36h0l-.23.3,0,0-.3.24a1.16,1.16,0,0,1,.24-.14l-.35.15.27-.08-.39.06h.18l-.39-.05.1,0-.35-.15.07,0-.29-.23.06.07-.23-.3.07.11-.15-.35a1.21,1.21,0,0,1,.05.18,2.33,2.33,0,0,0,.2.52l-.13-.33c0,.1.07.19.1.29a1.21,1.21,0,0,0,.84.84,1.17,1.17,0,0,0,1.16-.31,2,2,0,0,0,.64-1.34,2.08,2.08,0,0,0-.25-1,1.91,1.91,0,0,0-1.65-.92,2.86,2.86,0,0,0-1.22.31,1.54,1.54,0,0,0-.42.3,1.51,1.51,0,0,0,.66,2.53l-.66-.39a2.49,2.49,0,0,0,3.21.72,2.56,2.56,0,0,0,.88-1c.12-.23.2-.48.3-.72l-.16.38v0l-.25.32h0l-.31.25h0l-.8.22h0l-1.11-.46h0l1.91-2.47a2.72,2.72,0,0,0-3.77,1,1.65,1.65,0,0,0-.16,1.25,1.71,1.71,0,0,0,.74,1,8,8,0,0,0,1.14.55,3.17,3.17,0,0,0,.62.18,2.91,2.91,0,0,0,1.31,0,2.42,2.42,0,0,0,1-.59,2.94,2.94,0,0,0,.55-3.08,4.92,4.92,0,0,0-.88-1.52,3.35,3.35,0,0,0-1.41-1,2.82,2.82,0,0,0-1.7-.08,2.27,2.27,0,0,0-1.18.74c-.26.31-.51.63-.74,1a7,7,0,0,0-.78,1.48,3.29,3.29,0,0,0-.21,1.23,2.58,2.58,0,0,0,1.82,2.41,4.21,4.21,0,0,0,4.17-1.08,2.82,2.82,0,0,0,.87-2.15,2.68,2.68,0,0,0-.4-1.31,3.66,3.66,0,0,0-.89-1,6.56,6.56,0,0,0-.76-.54,1.14,1.14,0,0,0-1.7,1,1.08,1.08,0,0,0,.33.8Z" transform="translate(-272.23 -12.44)"/><path class="cls-9" d="M352.08,278a6.09,6.09,0,0,1,1.09.24l.22.08-.32-.13c.12,0,.23.11.35.15l-.32-.14a1.5,1.5,0,0,1,.32.19l-.28-.22a1,1,0,0,1,.15.14l-.22-.28a.39.39,0,0,1,.06.11l-.14-.34a.23.23,0,0,1,0,.11l0-.38v.11l0-.38,0,.12.14-.34a1.29,1.29,0,0,1-.09.16l.22-.3h0l.3-.23a.91.91,0,0,0-.16.11,1.15,1.15,0,0,0-.37.42h0l.23-.3a1,1,0,0,1-.22.2l.31-.23a3.24,3.24,0,0,1-.47.28l-.16.07.38-.16a3.71,3.71,0,0,1-.47.16l.43-.06-.44.06h-.05l-.07,0-.12.05-.25.06-.14,0,.44-.06a1.15,1.15,0,0,1-.32,0l.44.06-.15,0,.4.17-.08-.05.33.26-.05-.05.26.34s0,0,0-.06l.16.39s0-.05,0-.08l.06.44v-.12l-.06.44a.88.88,0,0,1,.07-.23l-.17.4a3.47,3.47,0,0,1,.38-.61l-.26.34a10.35,10.35,0,0,1,.89-1l.35-.34-1.63.43.47.17-.4-.17a2.8,2.8,0,0,1,.61.34l-.33-.26a1.14,1.14,0,0,1,.19.19l-.26-.34a.46.46,0,0,1,.09.15l-.17-.4a.53.53,0,0,1,0,.12l-.06-.45a.24.24,0,0,1,0,.12l.06-.45a.5.5,0,0,1,0,.13l.16-.4a.6.6,0,0,1-.09.15l.27-.34a1.45,1.45,0,0,1-.22.21l.34-.26a2.5,2.5,0,0,1-.53.3l.4-.17a3.12,3.12,0,0,1-.72.21l.44-.06a1.22,1.22,0,0,1-.27,0l.44.06-.09,0,.4.17,0,0,.34.26,0,0,.26.34v0l.16.39v0l.06.44v0l-.06.44a.14.14,0,0,1,0-.07l-.17.39a.83.83,0,0,1,.08-.12l-.26.33a1.07,1.07,0,0,1,.18-.19c.09-.08.19-.15.28-.24l-.32.25a3.75,3.75,0,0,0,.33-.26,1.16,1.16,0,0,0,.32-.5.9.9,0,0,0,.08-.21.09.09,0,0,0,0-.05c0-.05,0-.09,0-.13a1,1,0,0,0,0-.55,1,1,0,0,0-.17-.51l-.21-.28a1.34,1.34,0,0,0-.61-.35l-.48-.07.39.06a1.61,1.61,0,0,0-1.32.13l.38-.16a3.86,3.86,0,0,0-1.26.76,1.81,1.81,0,0,0-.37,2.22,2.06,2.06,0,0,0,.29.37,4.11,4.11,0,0,0,.35.27h0l.4.17a2.32,2.32,0,0,0,.58.08h.2c.21,0,.44,0,.66-.09a2.78,2.78,0,0,0,.51-.17,4.18,4.18,0,0,0,.88-.42,3,3,0,0,0,.92-.92l0,0c.07-.14.13-.3.19-.44l0-.1a2.15,2.15,0,0,0,0-1.07,3.07,3.07,0,0,0-.2-.5.61.61,0,0,0-.07-.1,2.39,2.39,0,0,0-.46-.54,4.39,4.39,0,0,0-.66-.47,7.4,7.4,0,0,0-.87-.38l-.29-.1a1.68,1.68,0,0,0-.89,0,1.59,1.59,0,0,0-.74.43c-.24.22-.47.46-.7.71s-.5.59-.74.91a3.7,3.7,0,0,0-.31.46,2.59,2.59,0,0,0-.17.38,2.67,2.67,0,0,0-.14.36,2.8,2.8,0,0,0-.08.57v.06h0c0,.11,0,.35.06.45v0a1.68,1.68,0,0,0,.2.48l.14.19s.1.13.15.18l0,0a2,2,0,0,0,.81.48l.11,0a3.26,3.26,0,0,0,.7.06,3.66,3.66,0,0,0,1.09-.23h.07l.2-.09a1.17,1.17,0,0,0,.53-.34l-.33.26a7.34,7.34,0,0,0,.86-.6,2.86,2.86,0,0,0,.43-.42,4.23,4.23,0,0,0,.32-.42l0-.06v0a3.92,3.92,0,0,0,.16-.36l-.15.35a4.32,4.32,0,0,0,.19-.45l0-.11a1.91,1.91,0,0,0,0-.95l0,0a2.66,2.66,0,0,0-.16-.39l0,0a3.92,3.92,0,0,0-.25-.32,3.25,3.25,0,0,0-.37-.3l-.12-.07a3.37,3.37,0,0,0-.49-.2,2.77,2.77,0,0,0-.56-.11l.35,0a6.67,6.67,0,0,0-.78-.12,5.12,5.12,0,0,0-.56,0h-.38a.93.93,0,0,0-.47.11.9.9,0,0,0-.39.25l-.19.25a.93.93,0,0,0-.15.45.58.58,0,0,0,0,.32,1,1,0,0,0,.15.46l.19.24a1.24,1.24,0,0,0,.54.32Z" transform="translate(-272.23 -12.44)"/><path class="cls-9" d="M374.61,260.64l-.1.13.2,0c-1.4-.64-3.18,1.1-4,2a15,15,0,0,0-2.82,4.59,23.42,23.42,0,0,0-1.49,11.48,1.36,1.36,0,0,0,1.32,1.32,1.33,1.33,0,0,0,1.33-1.32,19.61,19.61,0,0,1,3.52-14.43c.42-.6.9-1.17,1.35-1.75a5.89,5.89,0,0,0,.67-1c.08-.15.27-.67.27-.67.39-.08,0-.67-.21-.38Z" transform="translate(-272.23 -12.44)"/><path class="cls-9" d="M367.81,284.26h0l-.21-.28h0l-.13-.33s0,.06,0,.09l-.05-.37a.29.29,0,0,1,0,.13l.05-.38a.19.19,0,0,1,0,.08l.15-.35a.35.35,0,0,1-.05.08l.24-.31s0,0-.05.05l1.11-.46h0a1.47,1.47,0,0,0-.79.22,1.53,1.53,0,0,0-.57.56.08.08,0,0,1,0,0l.24-.32a.63.63,0,0,1-.11.12l.32-.25a1.71,1.71,0,0,1-.23.13l.39-.16a2.18,2.18,0,0,1-.44.11l.44-.06a1.63,1.63,0,0,1-.44,0l.44.06a1.09,1.09,0,0,1-.24-.07l.4.17-.43-.18.4.17-.1-.06.34.26-.06-.06.26.34,0-.05.17.4a.19.19,0,0,1,0-.07l.06.44a.27.27,0,0,1,0-.09l-.06.45a.5.5,0,0,1,0-.13l-.17.4a1.38,1.38,0,0,1,.14-.24l-.26.34a3.32,3.32,0,0,1,.67-.63l-.34.26.45-.33-1.29.17a1.11,1.11,0,0,1,.3.08l-.4-.17a1,1,0,0,1,.17.1l-.34-.26.13.13-.26-.34a.51.51,0,0,1,.09.16l-.17-.4a.79.79,0,0,1,.06.22l-.06-.45a1,1,0,0,1,0,.35l.06-.44a2,2,0,0,1-.15.51l.17-.4a2.49,2.49,0,0,1-.33.57l.26-.34a1.71,1.71,0,0,1-.35.36l.34-.26a1.35,1.35,0,0,1-.26.15l.4-.17a.6.6,0,0,1-.19.06l.45-.06h-.14l.44.06-.13,0,.4.17a.41.41,0,0,1-.11-.07l.34.27a.8.8,0,0,1-.13-.13l.26.34a1.3,1.3,0,0,1-.14-.26l.17.41c-.07-.17-.11-.35-.17-.51s-.12-.47-.18-.71l.05.41v-.14l-1.13,1.48a5.46,5.46,0,0,1,.87-.2l-.4,0a2,2,0,0,1,.55,0l-.41-.06a.73.73,0,0,1,.24.07l-.36-.16.13.08-.31-.24.09.08-.24-.3.06.1-.16-.37a.74.74,0,0,1,0,.14l-.05-.4v.19l.05-.41a1.33,1.33,0,0,1-.1.34l.15-.36a2.48,2.48,0,0,1-.32.54l.24-.31a2.84,2.84,0,0,1-.52.52l.31-.24a1.34,1.34,0,0,1-.36.22l.37-.16-.21.06.41,0h-.13l.41.06-.09,0,.37.16-.08-.05.32.25-.07-.07.24.31,0-.06c-.08-.13-.19-.25-.28-.37l.24.31a.82.82,0,0,1-.12-.2l.15.35a2.41,2.41,0,0,1-.08-.25c0-.1,0-.22-.06-.32l0,.35a1.91,1.91,0,0,0-.21-.81l.12.3a1.23,1.23,0,0,0-.35-.59l0,0-.05,0,0,0-.21-.16a.6.6,0,0,0-.34-.11,1,1,0,0,0-.42,0h0l0,0h0a1.15,1.15,0,0,0-.55.33l-.21.26.2-.26a1.87,1.87,0,0,0-.42.72l.14-.31a2.81,2.81,0,0,0-.22.53l-.05.2a2.68,2.68,0,0,0-.08.7,2.41,2.41,0,0,0,.07.53A1.92,1.92,0,0,0,366.9,287a2.5,2.5,0,0,0,.29.05l.3,0a1.88,1.88,0,0,0,.62-.11,2.69,2.69,0,0,0,.6-.27,4.26,4.26,0,0,0,.54-.41,4.4,4.4,0,0,0,.66-.77,3,3,0,0,0,.33-.54,4.16,4.16,0,0,0,.23-.62,2.82,2.82,0,0,0,.09-.64,1.83,1.83,0,0,0-.09-.62,2,2,0,0,0-.51-.84,2.2,2.2,0,0,0-.87-.51l-.15,0a5.54,5.54,0,0,0-.57-.07,3.09,3.09,0,0,0-.43,0,7.69,7.69,0,0,0-1,.16l-.32.09-.37.16a1.08,1.08,0,0,0-.43.39.79.79,0,0,0-.2.34,1.19,1.19,0,0,0-.13.59v.14l.06-.41a6.51,6.51,0,0,0-.11,1.16,3,3,0,0,0,.11.73,4.86,4.86,0,0,0,.25.63,1.74,1.74,0,0,0,.1.19,3.9,3.9,0,0,0,.31.4l.06.07a2.27,2.27,0,0,0,1,.57,2.32,2.32,0,0,0,1.17,0,2.57,2.57,0,0,0,.68-.3,4.17,4.17,0,0,0,.62-.49,6.34,6.34,0,0,0,.51-.65,3.35,3.35,0,0,0,.21-.36,6.67,6.67,0,0,0,.31-.78,3.87,3.87,0,0,0,.12-.82,1.09,1.09,0,0,0,0-.18c0-.17,0-.35-.07-.52s0-.06,0-.09l0-.07a3.9,3.9,0,0,0-.2-.47.43.43,0,0,0,0-.07,4.24,4.24,0,0,0-.31-.4,2.2,2.2,0,0,0-.46-.37l-.16-.1A3.8,3.8,0,0,0,369,281a4.35,4.35,0,0,0-.55-.07,1.82,1.82,0,0,0-1,.33c-.32.23-.64.48-.94.74a5.42,5.42,0,0,0-.63.72,2.36,2.36,0,0,0-.33.7,2.24,2.24,0,0,0-.08.57v0a3.54,3.54,0,0,0,.07.47s0,0,0,.05a2,2,0,0,0,.48.82,2.06,2.06,0,0,0,.41.32l.05,0h0l.4.17a2.44,2.44,0,0,0,.46.07l-.44-.06a3,3,0,0,0,1.5,0,4.44,4.44,0,0,0,.72-.27,3.36,3.36,0,0,0,.6-.41,2.06,2.06,0,0,0,.45-.56l.16-.38a1.23,1.23,0,0,0,0-.63.76.76,0,0,0-.1-.39,1.25,1.25,0,0,0-.33-.51h0l.46,1.1v-.05c0-.13,0-.3-.06-.43v0s0,0,0,0-.11-.27-.16-.38l0,0a2.18,2.18,0,0,0-.26-.34l0-.05a4.19,4.19,0,0,0-.33-.26l-.07,0,.28.21h0a1,1,0,0,0-.44-.28,1,1,0,0,0-.52-.12,1,1,0,0,0-.53.12,1,1,0,0,0-.44.28,1.38,1.38,0,0,0-.39,1l.05.36a1.38,1.38,0,0,0,.34.6Z" transform="translate(-272.23 -12.44)"/><path class="cls-10" d="M380.74,176.06c19.77,2.19,21.53-8.57,19.37-23.2,23.07.59,8.76-26.91,6-40.22-7.66-16.28-31.67-25.25-46.15-23.81-29.53,7.52-40.46,54.63-18.08,78.08C350.77,176.14,368.28,170.39,380.74,176.06Z" transform="translate(-272.23 -12.44)"/><path class="cls-9" d="M395.89,192.63c4.29-4.92.86-21.25-.42-39.21.88-31-28.94-29.25-53.67-23.47-12.76.29-7.24,69.64.24,64.07-15.26,17.95,7.41,14.6,28,14.86C392.43,209.68,406.74,209.66,395.89,192.63Z" transform="translate(-272.23 -12.44)"/><path class="cls-8" d="M405.75,204.32c.47,18.66,7.37,36.6,11.79,55.38A42.79,42.79,0,0,0,436.08,257C423.73,196.05,440.21,194.39,405.75,204.32Z" transform="translate(-272.23 -12.44)"/><path class="cls-8" d="M426.83,266.3a7.9,7.9,0,0,1,6.75.11C461.37,278.69,416.59,285.17,426.83,266.3Z" transform="translate(-272.23 -12.44)"/><path class="cls-11" d="M396.19,115.46c-2.09,4.07-1.92,8.62-1,13,1,4.9,2.81,9.62,3.75,14.54a33.55,33.55,0,0,1,.56,4.23c0,.71.06,1.42.05,2.13s-.12,1.5-.09,2.24a.3.3,0,0,0,.59.08,13.31,13.31,0,0,0,.19-3.68,32,32,0,0,0-.37-3.65,59.17,59.17,0,0,0-1.67-7.2c-1.3-4.55-2.95-9.16-3.15-13.94a15.54,15.54,0,0,1,1.48-7.54c.11-.23-.23-.43-.34-.2Z" transform="translate(-272.23 -12.44)"/><path class="cls-11" d="M397.15,114.05a8.41,8.41,0,0,1,3.11-2.93.16.16,0,0,0-.16-.28,7.6,7.6,0,0,0-3.24,3,.17.17,0,0,0,.29.17Z" transform="translate(-272.23 -12.44)"/><path class="cls-11" d="M373.3,92.9c7.12,2.14,14.32,5,20,9.87a30.56,30.56,0,0,1,2.27,2.14c.73.75,1.35,1.61,2.09,2.35A.21.21,0,0,0,398,107a12.75,12.75,0,0,0-1.72-2.09c-.65-.7-1.32-1.36-2-2a36.77,36.77,0,0,0-4.42-3.33,51.67,51.67,0,0,0-10.22-5c-2.06-.76-4.15-1.42-6.26-2-.2-.06-.29.26-.08.32Z" transform="translate(-272.23 -12.44)"/><path class="cls-11" d="M355.25,93.06c2.33-.17,4.66-.32,7-.48l3.44-.22a13.44,13.44,0,0,0,3.36-.29.17.17,0,0,0,0-.32,12.58,12.58,0,0,0-3.24.08l-3.56.23c-2.33.16-4.66.37-7,.59-.26,0-.26.43,0,.41Z" transform="translate(-272.23 -12.44)"/><path class="cls-11" d="M401.92,110.57a5.17,5.17,0,0,1,1.18,0,5.07,5.07,0,0,1,.54.09c.21,0,.45.15.63,0a.21.21,0,0,0,.05-.19c-.06-.23-.35-.28-.55-.33a4.62,4.62,0,0,0-.63-.11,5.52,5.52,0,0,0-1.22,0,.3.3,0,0,0-.28.29.28.28,0,0,0,.28.28Z" transform="translate(-272.23 -12.44)"/><path class="cls-12" d="M342.88,194c10.7-.13,21.4-.55,32.1-.85,3-.09,6.09-.06,9.11-.33a.16.16,0,1,0,0-.32c-2.65-.09-5.33.07-8,.14l-8.12.23-16,.45c-3,.09-6.08.17-9.12.3a.19.19,0,0,0,0,.38Z" transform="translate(-272.23 -12.44)"/><path class="cls-12" d="M387,192.53c1.19-.05,2.38-.06,3.58-.05l1.78.05a6.36,6.36,0,0,0,1.69-.06.15.15,0,0,0,0-.29,5.32,5.32,0,0,0-1.69-.24c-.59,0-1.19,0-1.78,0-1.2,0-2.39,0-3.58,0-.37,0-.38.6,0,.58Z" transform="translate(-272.23 -12.44)"/><path class="cls-12" d="M371.73,209H373a.29.29,0,0,0,.28-.28.28.28,0,0,0-.28-.27h-1.24a.28.28,0,0,0-.28.27.29.29,0,0,0,.28.28Z" transform="translate(-272.23 -12.44)"/><path class="cls-12" d="M373.14,260.8l.93-.83a8,8,0,0,0,.87-.88.17.17,0,0,0,0-.23.17.17,0,0,0-.23-.05,6.28,6.28,0,0,0-.52.38l-.49.4-.95.83a.27.27,0,0,0,.38.38Z" transform="translate(-272.23 -12.44)"/><path class="cls-12" d="M352.94,277.73l-.16.12,0,0a.82.82,0,0,0-.17.11l.05,0-.13.1.05,0-.09.08,0,0-.07.08a1.13,1.13,0,0,0-.12.18.42.42,0,0,0-.05.22.29.29,0,0,0,0,.16v0l.05.06.06,0h0l.1,0a.5.5,0,0,0,.17,0l.2,0,.15,0,.16,0,.22-.1.15-.07.14-.09.16-.13.12-.14a1.17,1.17,0,0,1,.05-.11s0-.08,0-.12v0s0-.06,0-.09v0a.2.2,0,0,0,0-.08v0a.2.2,0,0,0-.06-.07l0,0-.07-.06-.06,0-.14-.06-.22,0-.36,0h-.19l-.13.07v0l.1-.06-.17,0-.05,0-.05.05a.21.21,0,0,0,0,.11.17.17,0,0,0,0,.1.1.1,0,0,0,0,.05l.07,0,.17,0-.1-.06v0l.13.07.1,0h.09l.15,0h0a1.26,1.26,0,0,1,.28.05l.05,0-.06,0,.09.05,0,0a.08.08,0,0,1,0,0l0-.06s0,0,0,0l0-.07a.06.06,0,0,1,0,0V278s0,0,0,.05l0-.07a.16.16,0,0,1,0,.07l0-.05-.1.1,0,0,.06,0-.15.1-.18.1-.1,0,.06,0-.17.06-.16,0-.09,0h-.05l.06,0,0,0,.05,0s0,0,0,0l0,.06v0l0,.06v.08a.14.14,0,0,1,0-.06l0,.06.09-.14,0,.05.08-.09,0-.05.08-.1,0,.05.1-.12.06-.09,0,0a.94.94,0,0,1,.1-.1.22.22,0,0,0,.06-.14v0a.16.16,0,0,0,0-.07.18.18,0,0,0-.1-.07.19.19,0,0,0-.15,0Z" transform="translate(-272.23 -12.44)"/><path class="cls-12" d="M367.19,283.78a1.6,1.6,0,0,0-.1.23.88.88,0,0,0,0,.15.53.53,0,0,0,0,.13.13.13,0,0,0,0,.06.36.36,0,0,0,0,.11.13.13,0,0,0,0,.06.42.42,0,0,0,0,.1l0,0,.06.09,0,0,.13.1.11,0,.05,0,.11,0,.19,0h.25l.19,0,.12,0,.06,0,.11,0,.1-.05.08,0,.11-.09a.35.35,0,0,0,.05-.08s0,0,0,0l0-.09s0,0,0-.07h0v0s0,0,0-.06h0l0-.06,0,0,.06.1a.39.39,0,0,0-.08-.14.27.27,0,0,0-.08-.07l-.06,0-.13-.06-.23,0-.37-.05h-.37l-.1,0s-.07,0-.09,0l.07,0h0a.21.21,0,0,0-.11,0,.13.13,0,0,0,0,.11.14.14,0,0,0,0,.11.16.16,0,0,0,.11,0h0l-.07,0,.06,0h0l.06,0h.06a.2.2,0,0,0,.11,0l.22,0,.11,0H368l.23,0,.17,0,.08,0-.06,0,.1,0,0,0,0,0,0,0v0l0-.05h0v-.06a.19.19,0,0,0,0,.08v-.11a0,0,0,0,0,0,0l0-.06,0,0,0,0,0,0,0,0-.1.06h0l.06,0-.06,0h0l-.09,0,.06,0-.13,0-.14,0h-.32l-.15,0h0l.06,0a.24.24,0,0,1-.11-.06l.05,0a.23.23,0,0,1-.07-.07l0,.05a.25.25,0,0,1,0-.07l0,.05a.29.29,0,0,1,0-.09v.06a.71.71,0,0,1,0-.14v.07a.8.8,0,0,1,0-.18l0-.06,0,.05.06-.11a.24.24,0,0,0,0-.08.14.14,0,0,0,0-.09.2.2,0,0,0,0-.08.13.13,0,0,0-.07-.06l-.05,0h-.12a.24.24,0,0,0-.14.1Z" transform="translate(-272.23 -12.44)"/><path class="cls-12" d="M393.79,279.45h-.13l-.19,0-.1,0-.15.06a.57.57,0,0,0-.18.12l-.09.11,0,.06a.5.5,0,0,0-.05.13v0s0,.07,0,.11v.07a.78.78,0,0,0,0,.14.83.83,0,0,0,0,.15,2,2,0,0,0,.1.21,1.1,1.1,0,0,0,.09.14l.14.19.11.1.16.13.1.06.11,0,.11,0H394l0,0h0l.06-.05h0l.05-.06h0l0-.09h0v0a.57.57,0,0,0,0-.13.77.77,0,0,0,0-.15,1.16,1.16,0,0,0,0-.18,2.88,2.88,0,0,0-.13-.31l-.15-.32a.56.56,0,0,1,0-.08l0,0a.22.22,0,0,0-.06-.07l0,0-.07,0h-.16a.2.2,0,0,0-.11,0l-.06,0a.54.54,0,0,0-.07.13s0,0,0,.06a.25.25,0,0,0,0,.12l0,.08v0l0,.06.06.11c0,.07.07.14.1.2a1,1,0,0,0,0,.1l0-.07a1.42,1.42,0,0,1,.11.33.64.64,0,0,1,0,.07v-.07s0,0,0,0l0-.07s0,0,0,0l.05-.06h0l.07-.05h0l.08,0h0l.09,0h0l.08,0-.06,0,.08,0a.21.21,0,0,1-.1-.06l0,0,.06.05-.09-.08-.1-.1-.05-.07.05.07-.09-.13a.54.54,0,0,1-.07-.13.25.25,0,0,1,0-.07l0,.07c0-.05,0-.1-.05-.15v0a.24.24,0,0,1,0-.12v.08a.19.19,0,0,1,0-.08l0,.07a.16.16,0,0,1,0-.07l-.05.06.06-.06-.06.05a.24.24,0,0,1,.11-.06l-.08,0,.16-.05h0l.2,0a.15.15,0,0,0,.11,0,.28.28,0,0,0,.15-.15.36.36,0,0,0,0-.11v-.08a.29.29,0,0,0-.07-.12l-.06-.05a.33.33,0,0,0-.14,0Z" transform="translate(-272.23 -12.44)"/><polyline class="cls-13" points="150.77 57.58 148.06 60.7 149.89 63.82"/><polyline class="cls-13" points="156.47 57.58 158.3 60.7 155.59 63.82"/><line class="cls-13" x1="151.71" y1="64.36" x2="154.46" y2="57.58"/><path class="cls-14" d="M433.06,76.85c-.16-.88-.52-.88,0,0C433.36,77.62,430.5,78.25,433.06,76.85Z" transform="translate(-272.23 -12.44)"/><path class="cls-14" d="M435.71,76.85c-.16-.88-.52-.88,0,0C436,77.62,433.15,78.25,435.71,76.85Z" transform="translate(-272.23 -12.44)"/><path class="cls-14" d="M438.36,76.85c-.17-.88-.52-.88,0,0C438.66,77.62,435.8,78.25,438.36,76.85Z" transform="translate(-272.23 -12.44)"/><line class="cls-15" x1="146.79" y1="69.72" x2="222.44" y2="69.72"/><line class="cls-16" x1="146.25" y1="73.6" x2="191.69" y2="73.6"/><line class="cls-17" x1="195.23" y1="73.6" x2="221.9" y2="73.6"/><line class="cls-17" x1="221.3" y1="77.84" x2="183.89" y2="77.84"/><line class="cls-18" x1="200.3" y1="57.58" x2="224.33" y2="57.58"/><line class="cls-19" x1="197.12" y1="61.46" x2="223.78" y2="61.46"/><line class="cls-19" x1="223.19" y1="65.7" x2="185.78" y2="65.7"/><line class="cls-16" x1="180.85" y1="77.84" x2="176.4" y2="77.84"/><line class="cls-16" x1="172.86" y1="77.84" x2="168.4" y2="77.84"/><line class="cls-16" x1="164.86" y1="77.84" x2="160.4" y2="77.84"/><line class="cls-16" x1="156.86" y1="77.84" x2="152.41" y2="77.84"/><line class="cls-20" x1="220.57" y1="83.01" x2="150.26" y2="83.01"/><line class="cls-16" x1="147.26" y1="77.84" x2="145.65" y2="77.84"/><line class="cls-16" x1="146.53" y1="83.01" x2="144.92" y2="83.01"/><line class="cls-16" x1="145.81" y1="88.17" x2="144.2" y2="88.17"/><line class="cls-16" x1="145.08" y1="93.33" x2="143.47" y2="93.33"/><line class="cls-21" x1="150.79" y1="88.17" x2="170.13" y2="88.17"/><line class="cls-21" x1="150.05" y1="93.46" x2="175.7" y2="93.46"/><line class="cls-19" x1="149.3" y1="98.75" x2="184.09" y2="98.75"/><line class="cls-22" x1="172.16" y1="88.17" x2="219.85" y2="88.17"/><line class="cls-22" x1="177.53" y1="93.46" x2="219.1" y2="93.46"/><line class="cls-19" x1="186.23" y1="98.75" x2="218.36" y2="98.75"/><path class="cls-23" d="M380,36.16c5.9-1,41.39,2,44.65-2.59,5-6.36,3.16-20.84-5.56-21.07-5.91,1-41.39-2-44.65,2.6C369.47,21.46,371.27,35.93,380,36.16Z" transform="translate(-272.23 -12.44)"/><path class="cls-23" d="M391.68,35C380,44.2,383,41.81,384,33Z" transform="translate(-272.23 -12.44)"/><text class="cls-24" transform="translate(112.14 14.85)">{ }</text><text class="cls-25" transform="translate(128.21 16.25) scale(0.76 1)">&lt; / &gt;</text></g></svg>